<?xml version="1.0" encoding="UTF-8"?>
<!DOCTYPE svg PUBLIC "-//W3C//DTD SVG 1.1//EN" "http://www.w3.org/Graphics/SVG/1.1/DTD/svg11.dtd">
<!-- Creator: CorelDRAW -->
<svg xmlns="http://www.w3.org/2000/svg" xml:space="preserve" width="2048px" height="2048px" style="shape-rendering:geometricPrecision; text-rendering:geometricPrecision; image-rendering:optimizeQuality; fill-rule:evenodd; clip-rule:evenodd"
viewBox="0 0 2048 2048"
 xmlns:xlink="http://www.w3.org/1999/xlink">
 <defs>
  <style type="text/css">
   <![CDATA[
    .fil1 {fill:none}
    .fil4 {fill:#B8B8B8}
    .fil3 {fill:#C4C4C4}
    .fil5 {fill:#FFFFFE}
    .fil0 {fill:#414141;fill-rule:nonzero}
    .fil2 {fill:#BEBEBE;fill-rule:nonzero}
   ]]>
  </style>
 </defs>
 <g id="Layer_x0020_1">
  <metadata id="CorelCorpID_0Corel-Layer"/>
  <g id="_345806536">
   <path id="_345804928" class="fil0" d="M647.084 1417.73c31.3654,0 59.7756,12.7193 80.3304,33.2811 20.5618,20.5559 33.2823,48.965 33.2823,80.3316 0,31.3725 -12.7205,59.7756 -33.2823,80.3375 -20.5547,20.5547 -48.965,33.2752 -80.3304,33.2752 -31.3725,0 -59.7756,-12.7205 -80.3304,-33.2752 -20.5618,-20.5618 -33.2823,-48.965 -33.2823,-80.3375 0,-31.3666 12.7205,-59.7756 33.2823,-80.3316 20.5547,-20.5618 48.9579,-33.2811 80.3304,-33.2811z"/>
   <rect id="_345805048" class="fil1" width="2048" height="2048"/>
   <rect id="_345805288" class="fil1" x="255.999" y="255.999" width="1536" height="1536"/>
   <path id="_345805504" class="fil2" d="M682.635 1495.79c-9.09568,-9.09568 -21.665,-14.7248 -35.5512,-14.7248 -13.8862,0 -26.4555,5.62914 -35.5512,14.7248 -9.09568,9.09568 -14.7248,21.6709 -14.7248,35.5512 0,13.8862 5.62914,26.4614 14.7248,35.5571 9.09568,9.09568 21.665,14.7189 35.5512,14.7189 13.8862,0 26.4555,-5.62323 35.5512,-14.7189 9.09568,-9.09568 14.7248,-21.6709 14.7248,-35.5571 0,-13.8803 -5.62914,-26.4555 -14.7248,-35.5512z"/>
   <path id="_345807640" class="fil0" d="M1073.81 1417.73c31.3725,0 59.7756,12.7193 80.3304,33.2811 20.5618,20.5559 33.2823,48.965 33.2823,80.3316 0,31.3725 -12.7205,59.7756 -33.2823,80.3375 -20.5547,20.5547 -48.9579,33.2752 -80.3304,33.2752 -31.3725,0 -59.7756,-12.7205 -80.3375,-33.2752 -20.5547,-20.5618 -33.2752,-48.965 -33.2752,-80.3375 0,-31.3666 12.7205,-59.7756 33.2752,-80.3316 20.5618,-20.5618 48.965,-33.2811 80.3375,-33.2811z"/>
   <path id="_345806680" class="fil3" d="M359.439 677.388l1016.78 0 45.2209 -98.895c71.9717,-157.339 182.943,-163.908 316.987,-171.843 16.6347,-0.989765 33.6792,-1.99843 53.5725,-3.60591l0 63.4689c-15.7654,1.20473 -33.0047,2.2252 -49.8662,3.22087 -113.329,6.71339 -207.162,12.2669 -263.301,134.982l-360.612 793.822 -523.367 -0.347244 0.0755906 -62.6812 480.447 -0.302362 56.7248 -123.957 -536.63 0 -195.571 -337.618 -0.0944883 0.056693 -35.4 -61.3323 -55.4575 -95.7355 0.126378 -0.126378 -53.0752 -91.9359 73.3973 0 2.15551 4.48229 27.8858 48.3473z"/>
   <polygon id="_345805984" class="fil3" points="895.998,1398.39 594.854,1398.19 594.93,1335.51 895.998,1335.32 "/>
   <polygon id="_345806584" class="fil4" points="359.439,677.388 895.998,677.388 895.998,1211.25 595.472,1211.25 399.901,873.631 399.807,873.688 364.407,812.356 308.949,716.62 309.076,716.494 256.001,624.558 329.398,624.558 331.553,629.04 "/>
   <path id="_345806776" class="fil2" d="M1109.36 1495.79c-9.09568,-9.09568 -21.665,-14.7248 -35.5512,-14.7248 -13.8862,0 -26.4614,5.62914 -35.5583,14.7248 -9.09568,9.09568 -14.7177,21.6709 -14.7177,35.5512 0,13.8862 5.62205,26.4614 14.7177,35.5571 9.09686,9.09568 21.6721,14.7189 35.5583,14.7189 13.8862,0 26.4555,-5.62323 35.5512,-14.7189 9.09568,-9.09568 14.7248,-21.6709 14.7248,-35.5571 0,-13.8803 -5.62914,-26.4555 -14.7248,-35.5512z"/>
   <polygon id="_345806992" class="fil4" points="1149.91,986.851 632.762,986.851 595.571,923.514 1178.47,923.514 "/>
   <polygon id="_345806248" class="fil4" points="1098.41,1101.02 699.811,1101.02 662.62,1037.69 1126.98,1037.69 "/>
   <polygon id="_345806560" class="fil4" points="1201.4,872.677 565.712,872.677 528.521,809.34 1230.28,809.34 "/>
   <polygon id="_345807472" class="fil5" points="1146.24,975.615 629.095,975.615 591.904,912.278 1174.81,912.278 "/>
   <polygon id="_345807352" class="fil5" points="1094.75,1089.79 696.143,1089.79 658.953,1026.46 1123.31,1026.46 "/>
   <polygon id="_345807184" class="fil5" points="1197.73,861.441 562.045,861.441 524.854,798.105 1226.61,798.105 "/>
  </g>
 </g>
</svg>
